<?xml version="1.0" encoding="UTF-8"?>
<!DOCTYPE svg PUBLIC "-//W3C//DTD SVG 1.1//EN" "http://www.w3.org/Graphics/SVG/1.1/DTD/svg11.dtd"><svg version="1.1" viewBox="0 0 29700 21000" preserveAspectRatio="xMidYMid" fill-rule="evenodd" xmlns="http://www.w3.org/2000/svg" xmlns:xlink="http://www.w3.org/1999/xlink"><g visibility="visible" id="Oletus"><desc>Master slide</desc><g style="stroke:none;fill:none"><rect x="993" y="993" width="27716" height="19016"/></g></g><g visibility="visible" id="page1"><desc>Slide</desc><g><desc>Drawing</desc><g><g style="stroke:none;fill:rgb(0,0,0)"><path d="M 3018,5982 L 5018,7982 5000,8000 4982,8018 2982,6018 3000,6000 3018,5982 Z"/><path d="M 4982,8018 L 5000,8000 5000,8025 4990,8025 4982,8018 Z"/><path d="M 5000,7975 L 8000,7975 8000,8000 8000,8025 5000,8025 5000,8000 5000,7975 Z"/><path d="M 8000,8025 L 8000,8000 8025,8000 8025,8025 8000,8025 Z"/><path d="M 7975,8000 L 7975,3500 8000,3500 8025,3500 8025,8000 8000,8000 7975,8000 Z"/><path d="M 8000,3475 L 8000,3500 7975,3500 7975,3475 8000,3475 Z"/><path d="M 8000,3475 L 10000,3475 10000,3500 10000,3525 8000,3525 8000,3500 8000,3475 Z"/><path d="M 10025,3500 L 10000,3500 10000,3475 10025,3475 10025,3500 Z"/><path d="M 10025,3500 L 10025,8000 10000,8000 9975,8000 9975,3500 10000,3500 10025,3500 Z"/><path d="M 9975,8000 L 10000,8000 10000,8025 9975,8025 9975,8000 Z"/><path d="M 10000,7975 L 13000,7975 13000,8000 13000,8025 10000,8025 10000,8000 10000,7975 Z"/><path d="M 13000,8025 L 13000,8000 13025,8000 13025,8025 13000,8025 Z"/><path d="M 12975,8000 L 12975,3500 13000,3500 13025,3500 13025,8000 13000,8000 12975,8000 Z"/><path d="M 13000,3475 L 13000,3500 12975,3500 12975,3475 13000,3475 Z"/><path d="M 13000,3475 L 15000,3475 15000,3500 15000,3525 13000,3525 13000,3500 13000,3475 Z"/><path d="M 15025,3500 L 15000,3500 15000,3475 15025,3475 15025,3500 Z"/><path d="M 15025,3500 L 15025,7500 15000,7500 14975,7500 14975,3500 15000,3500 15025,3500 Z"/><path d="M 14975,7500 L 15000,7500 15000,7525 14975,7525 14975,7500 Z"/><path d="M 15000,7475 L 18000,7475 18000,7500 18000,7525 15000,7525 15000,7500 15000,7475 Z"/><path d="M 18000,7525 L 18000,7500 18025,7500 18025,7525 18000,7525 Z"/><path d="M 17975,7500 L 17975,3500 18000,3500 18025,3500 18025,7500 18000,7500 17975,7500 Z"/><path d="M 18000,3475 L 18000,3500 17975,3500 17975,3475 18000,3475 Z"/><path d="M 18000,3475 L 20000,3475 20000,3500 20000,3525 18000,3525 18000,3500 18000,3475 Z"/><path d="M 20025,3500 L 20000,3500 20000,3475 20025,3475 20025,3500 Z"/><path d="M 20025,3500 L 20025,7000 20000,7000 19975,7000 19975,3500 20000,3500 20025,3500 Z"/><path d="M 19975,7000 L 20000,7000 20000,7025 19975,7025 19975,7000 Z"/><path d="M 20000,6975 L 23000,6975 23000,7000 23000,7025 20000,7025 20000,7000 20000,6975 Z"/><path d="M 23000,7025 L 23000,7000 23025,7000 23025,7025 23000,7025 Z"/><path d="M 22975,7000 L 22975,3000 23000,3000 23025,3000 23025,7000 23000,7000 22975,7000 Z"/><path d="M 23000,2975 L 23000,3000 22975,3000 22975,2975 23000,2975 Z"/><path d="M 23000,2975 L 25000,2975 25000,3000 25000,3025 23000,3025 23000,3000 23000,2975 Z"/><path d="M 25025,3000 L 25000,3000 25000,2975 25025,2975 25025,3000 Z"/><path d="M 25025,3000 L 25025,14500 25000,14500 24975,14500 24975,3000 25000,3000 25025,3000 Z"/><path d="M 25000,14525 L 25000,14500 25025,14500 25025,14525 25000,14525 Z"/><path d="M 25000,14525 L 23000,14525 23000,14500 23000,14475 25000,14475 25000,14500 25000,14525 Z"/><path d="M 22975,14500 L 23000,14500 23000,14525 22975,14525 22975,14500 Z"/><path d="M 22975,14500 L 22975,8500 23000,8500 23025,8500 23025,14500 23000,14500 22975,14500 Z"/><path d="M 23025,8500 L 23000,8500 23000,8475 23025,8475 23025,8500 Z"/><path d="M 23000,8525 L 20000,8525 20000,8500 20000,8475 23000,8475 23000,8500 23000,8525 Z"/><path d="M 20000,8475 L 20000,8500 19975,8500 19975,8475 20000,8475 Z"/><path d="M 20025,8500 L 20025,14500 20000,14500 19975,14500 19975,8500 20000,8500 20025,8500 Z"/><path d="M 20000,14525 L 20000,14500 20025,14500 20025,14525 20000,14525 Z"/><path d="M 20000,14525 L 18000,14525 18000,14500 18000,14475 20000,14475 20000,14500 20000,14525 Z"/><path d="M 17975,14500 L 18000,14500 18000,14525 17975,14525 17975,14500 Z"/><path d="M 17975,14500 L 17975,9000 18000,9000 18025,9000 18025,14500 18000,14500 17975,14500 Z"/><path d="M 18025,9000 L 18000,9000 18000,8975 18025,8975 18025,9000 Z"/><path d="M 18000,9025 L 15000,9025 15000,9000 15000,8975 18000,8975 18000,9000 18000,9025 Z"/><path d="M 15000,8975 L 15000,9000 14975,9000 14975,8975 15000,8975 Z"/><path d="M 15025,9000 L 15025,12250 15000,12250 14975,12250 14975,9000 15000,9000 15025,9000 Z"/><path d="M 15000,12275 L 15000,12250 15025,12250 15025,12275 15000,12275 Z"/><path d="M 15000,12275 L 14500,12275 14500,12250 14500,12225 15000,12225 15000,12250 15000,12275 Z"/><path d="M 14500,12225 L 14500,12250 14475,12250 14475,12225 14500,12225 Z"/><path d="M 14525,12250 L 14525,12750 14500,12750 14475,12750 14475,12250 14500,12250 14525,12250 Z"/><path d="M 14475,12750 L 14500,12750 14500,12775 14475,12775 14475,12750 Z"/><path d="M 14500,12725 L 15250,12725 15250,12750 15250,12775 14500,12775 14500,12750 14500,12725 Z"/><path d="M 15268,12732 L 15250,12750 15250,12725 15260,12725 15268,12732 Z"/><path d="M 15268,12732 L 15518,12982 15500,13000 15482,13018 15232,12768 15250,12750 15268,12732 Z"/><path d="M 15525,13000 L 15500,13000 15518,12982 15525,12990 15525,13000 Z"/><path d="M 15525,13000 L 15525,14000 15500,14000 15475,14000 15475,13000 15500,13000 15525,13000 Z"/><path d="M 15518,14018 L 15500,14000 15525,14000 15525,14010 15518,14018 Z"/><path d="M 15518,14018 L 15268,14268 15250,14250 15232,14232 15482,13982 15500,14000 15518,14018 Z"/><path d="M 15250,14275 L 15250,14250 15268,14268 15260,14275 15250,14275 Z"/><path d="M 15250,14275 L 13750,14275 13750,14250 13750,14225 15250,14225 15250,14250 15250,14275 Z"/><path d="M 13750,14225 L 13750,14250 13725,14250 13725,14225 13750,14225 Z"/><path d="M 13775,14250 L 13775,14500 13750,14500 13725,14500 13725,14250 13750,14250 13775,14250 Z"/><path d="M 13768,14518 L 13750,14500 13775,14500 13775,14510 13768,14518 Z"/><path d="M 13768,14518 L 13518,14768 13500,14750 13482,14732 13732,14482 13750,14500 13768,14518 Z"/><path d="M 13500,14775 L 13500,14750 13518,14768 13510,14775 13500,14775 Z"/><path d="M 13500,14775 L 12500,14775 12500,14750 12500,14725 13500,14725 13500,14750 13500,14775 Z"/><path d="M 12482,14768 L 12500,14750 12500,14775 12490,14775 12482,14768 Z"/><path d="M 12482,14768 L 12232,14518 12250,14500 12268,14482 12518,14732 12500,14750 12482,14768 Z"/><path d="M 12225,14500 L 12250,14500 12232,14518 12225,14510 12225,14500 Z"/><path d="M 12225,14500 L 12225,13000 12250,13000 12275,13000 12275,14500 12250,14500 12225,14500 Z"/><path d="M 12232,12982 L 12250,13000 12225,13000 12225,12990 12232,12982 Z"/><path d="M 12232,12982 L 12482,12732 12500,12750 12518,12768 12268,13018 12250,13000 12232,12982 Z"/><path d="M 12500,12725 L 12500,12750 12482,12732 12490,12725 12500,12725 Z"/><path d="M 12500,12725 L 13500,12725 13500,12750 13500,12775 12500,12775 12500,12750 12500,12725 Z"/><path d="M 13500,12775 L 13500,12750 13525,12750 13525,12775 13500,12775 Z"/><path d="M 13475,12750 L 13475,12250 13500,12250 13525,12250 13525,12750 13500,12750 13475,12750 Z"/><path d="M 13525,12250 L 13500,12250 13500,12225 13525,12225 13525,12250 Z"/><path d="M 13500,12275 L 13000,12275 13000,12250 13000,12225 13500,12225 13500,12250 13500,12275 Z"/><path d="M 12975,12250 L 13000,12250 13000,12275 12975,12275 12975,12250 Z"/><path d="M 12975,12250 L 12975,9500 13000,9500 13025,9500 13025,12250 13000,12250 12975,12250 Z"/><path d="M 13025,9500 L 13000,9500 13000,9475 13025,9475 13025,9500 Z"/><path d="M 13000,9525 L 10000,9525 10000,9500 10000,9475 13000,9475 13000,9500 13000,9525 Z"/><path d="M 10000,9475 L 10000,9500 9975,9500 9975,9475 10000,9475 Z"/><path d="M 10025,9500 L 10025,14500 10000,14500 9975,14500 9975,9500 10000,9500 10025,9500 Z"/><path d="M 10000,14525 L 10000,14500 10025,14500 10025,14525 10000,14525 Z"/><path d="M 10000,14525 L 8000,14525 8000,14500 8000,14475 10000,14475 10000,14500 10000,14525 Z"/><path d="M 7975,14500 L 8000,14500 8000,14525 7975,14525 7975,14500 Z"/><path d="M 7975,14500 L 7975,10000 8000,10000 8025,10000 8025,14500 8000,14500 7975,14500 Z"/><path d="M 8025,10000 L 8000,10000 8000,9975 8025,9975 8025,10000 Z"/><path d="M 8000,10025 L 5000,10025 5000,10000 5000,9975 8000,9975 8000,10000 8000,10025 Z"/><path d="M 5000,9975 L 5000,10000 4982,9982 4990,9975 5000,9975 Z"/><path d="M 5018,10018 L 3018,12018 3000,12000 2982,11982 4982,9982 5000,10000 5018,10018 Z"/></g><g/></g></g><g><desc>Drawing</desc><g><g style="stroke:none;fill:rgb(0,0,0)"><path d="M 3056,6018 C 2517,6516 2158,7013 1933,7497 L 1911,7486 1888,7476 C 2115,6987 2478,6484 3022,5982 L 3039,6000 3056,6018 Z"/><path d="M 1933,7497 C 1821,7738 1743,7976 1692,8208 L 1668,8203 1643,8198 C 1695,7962 1774,7720 1888,7476 L 1911,7486 1933,7497 Z"/><path d="M 1692,8208 C 1642,8441 1620,8668 1620,8889 L 1595,8889 1570,8889 C 1570,8665 1592,8434 1643,8198 L 1668,8203 1692,8208 Z"/><path d="M 1620,8889 C 1620,9330 1709,9744 1844,10117 L 1820,10125 1797,10133 C 1660,9756 1570,9336 1570,8889 L 1595,8889 1620,8889 Z"/><path d="M 1844,10117 C 1978,10490 2158,10821 2338,11097 L 2317,11111 2296,11125 C 2114,10846 1933,10510 1797,10133 L 1820,10125 1844,10117 Z"/><path d="M 2338,11097 C 2428,11236 2517,11360 2602,11469 L 2582,11484 2562,11500 C 2477,11390 2386,11264 2296,11125 L 2317,11111 2338,11097 Z"/><path d="M 2602,11469 C 2686,11578 2765,11671 2832,11747 L 2813,11764 2795,11780 C 2727,11704 2647,11610 2562,11500 L 2582,11484 2602,11469 Z"/><path d="M 2832,11747 C 2866,11785 2897,11819 2924,11848 L 2906,11865 2887,11882 C 2860,11853 2829,11819 2795,11780 L 2813,11764 2832,11747 Z"/><path d="M 2924,11848 C 2951,11877 2975,11902 2995,11922 L 2977,11939 2959,11957 C 2939,11937 2915,11912 2887,11882 L 2906,11865 2924,11848 Z"/><path d="M 2995,11922 C 3005,11932 3013,11940 3021,11948 L 3003,11966 2986,11983 C 2978,11976 2969,11967 2959,11957 L 2977,11939 2995,11922 Z"/><path d="M 3021,11948 C 3028,11955 3035,11962 3040,11967 L 3023,11985 3005,12003 C 3000,11997 2993,11991 2986,11983 L 3003,11966 3021,11948 Z"/><path d="M 3040,11967 C 3043,11969 3045,11971 3047,11973 L 3030,11991 3013,12009 C 3010,12007 3008,12005 3005,12003 L 3023,11985 3040,11967 Z"/><path d="M 3047,11973 C 3049,11975 3051,11977 3052,11978 L 3035,11996 3018,12014 C 3016,12013 3015,12011 3013,12009 L 3030,11991 3047,11973 Z"/><path d="M 3052,11978 C 3053,11979 3054,11980 3055,11981 L 3038,11999 3021,12017 C 3020,12017 3019,12016 3018,12014 L 3035,11996 3052,11978 Z"/><path d="M 3055,11981 C 3056,11981 3056,11982 3056,11982 L 3039,12000 3022,12018 C 3022,12018 3022,12018 3021,12017 L 3038,11999 3055,11981 Z"/></g><g/></g></g></g></svg>