<?xml version="1.0" encoding="UTF-8" standalone="no"?>
<!-- Created with Inkscape (http://www.inkscape.org/) -->
<svg xmlns:rdf="http://www.w3.org/1999/02/22-rdf-syntax-ns#" xmlns="http://www.w3.org/2000/svg" height="700.55" width="1320.2" version="1.1" xmlns:cc="http://creativecommons.org/ns#" xmlns:dc="http://purl.org/dc/elements/1.1/">
<defs></defs>
<metadata>
<rdf:RDF>
<cc:Work rdf:about="">
<dc:format>image/svg+xml</dc:format>
<dc:type rdf:resource="http://purl.org/dc/dcmitype/StillImage"/>
<dc:title/>
</cc:Work>
</rdf:RDF>
</metadata>
<g stroke-linejoin="miter" stroke="#000" stroke-linecap="butt" transform="translate(320.11429,-223.35939)" fill="none">
<path d="M-285.71,263.79c5.71,128.57,5.71,132.86,5.71,132.86l12.857-1.4286,65.714,338.57-54.286,7.1429,12.857,84.286,14.286,1.4286,1.4286,12.857-24.286,5.7143,4.2857,44.286,857.14-115.72,62.857,12.857,261.43,31.429,14.286-91.429-25.714-1.4286,1.4286-55.714h-141.43l1.4286-24.286-8.5714-1.4286,10-57.143,148.57-24.286-16.685-124.27,30.971-0.0159,4.2857-102.86-304.29,8.5714-30,44.286-54.286-1.4286-7.1428-68.571-50,5.7143,2.8571,18.571-354.29,2.8572-211.43,2.8571-7.1429-84.286z" stroke-miterlimit="4" stroke-dasharray="none" stroke-width="8.80000019"/>
<path d="m787.03,593.55,22.143,4.2857s-4.2857,16.429-23.571,11.786" stroke-width="1px"/>
<path d="m1103.2,392.33,22.143,3.9286s-3.5714,17.857-25,12.5" transform="translate(-320.11429,223.35939)" stroke-width="1px"/>
<path d="m901.43,161.62,1.4286-24.643s22.143,1.4286,19.643,26.071" transform="translate(-320.11429,223.35939)" stroke-width="1px"/>
</g>
<g stroke-linejoin="miter" stroke="#000" stroke-linecap="butt" transform="translate(320.11429,-223.35939)" fill="none">
<path d="M-224.29,838.08,600,729.51l292.86,38.571v-32.857l-124.29,1.43-138.57-21.43,11.43-81.43,138.57,15.72-12.86,84.28" stroke-miterlimit="4" stroke-dasharray="none" stroke-width="3"/>
<path d="M-224.29,838.08,600,729.51l292.86,38.571v-32.857l-124.29,1.43-138.57-21.43,11.43-81.43,138.57,15.72-12.86,84.28" stroke-miterlimit="4" stroke-dasharray="none" stroke-width="3"/>
<path d="M-224.29,838.08,600,729.51l292.86,38.571v-32.857l-124.29,1.43-138.57-21.43,11.43-81.43,138.57,15.72-12.86,84.28" stroke-miterlimit="4" stroke-dasharray="none" stroke-width="3"/>
<path d="m90.446,600.46c87.143-12.857,95.268-11.339,95.268-11.339l-78.571-400h-20l-1.4286-20,130,1.4286v-8.5714l44.286,2.8571v8.5714h472.86l1.4286,67.143-1.4286,4.2857h8.5714l-5.7143,34.286,105.71,14.286,4.2857-31.429-24.286-8.5714,2.8571-10,70-2.8572-10-52.857-31.429-1.4286-1.4286-20,32.857-1.4286" transform="translate(-320.11429,223.35939)" stroke-miterlimit="4" stroke-dasharray="none" stroke-width="3"/>
<path d="m128.57,204.83,52.857,257.14,54.286-8.5714-42.857-207.14,305.71-1.4286-10-52.857-327.14,1.4286-2.8571,11.429z" transform="translate(-320.11429,223.35939)" stroke-miterlimit="4" stroke-dasharray="none" stroke-width="3"/>
<path d="m518.57,220.55,2.8571,24.286,192.86,1.4286-1.4286-57.143-164.29,4.2857-1.4286,27.143z" transform="translate(-320.11429,223.35939)" stroke-miterlimit="4" stroke-dasharray="none" stroke-width="3"/>
<path d="m90.446,600.46c87.143-12.857,95.268-11.339,95.268-11.339l-78.571-400h-20l-1.4286-20,130,1.4286v-8.5714l44.286,2.8571v8.5714h472.86l1.4286,67.143-1.4286,4.2857h8.5714l-5.7143,34.286,105.71,14.286,4.2857-31.429-24.286-8.5714,2.8571-10,70-2.8572-10-52.857-31.429-1.4286-1.4286-20,32.857-1.4286" transform="translate(-320.11429,223.35939)" stroke-miterlimit="4" stroke-dasharray="none" stroke-width="3"/>
<path d="m185.71,481.97,345.71-45.714,17.143,97.143-344.29,48.571z" transform="translate(-320.11429,223.35939)" stroke-miterlimit="4" stroke-dasharray="none" stroke-width="3"/>
<path d="m552.86,433.4,11.429,80,54.286-8.5714,2.8571,20,305.71-38.571-14.286-78.571-30,5.7143-7.1428-21.429z" transform="translate(-320.11429,223.35939)" stroke-miterlimit="4" stroke-dasharray="none" stroke-width="3"/>
<path d="m232.86,437.69,291.43-40-25.714-151.43" transform="translate(-320.11429,223.35939)" stroke-miterlimit="4" stroke-dasharray="none" stroke-width="3"/>
<path d="m1104.3,360.55-30,4.2857-21.429-168.57,95.266-13.706,87.585-6.4477,1.4348,37.296" transform="translate(-320.11429,223.35939)" stroke-miterlimit="4" stroke-dasharray="none" stroke-width="3"/>
<path d="m1104.3,360.55-30,4.2857-21.429-168.57,95.266-13.706,87.585-6.4477,1.4348,37.296" transform="translate(-320.11429,223.35939)" stroke-miterlimit="4" stroke-dasharray="none" stroke-width="3"/>
<path d="m937.14,166.26,171.43,0-1.4285,22.857" transform="translate(-320.11429,223.35939)" stroke-miterlimit="4" stroke-dasharray="none" stroke-width="3"/>
<path d="m533.39,442.87c9.8214,3.2143,8.0357-8.0357,8.0357-8.0357s3.9286,10.357,11.964,4.8214" transform="translate(-320.11429,223.35939)" stroke-width="1px"/>
<path d="m930.89,484.3c5,3.2143,6.7857-5.8928,6.7857-5.8928s0,9.8214,8.5714,7.8571l0.35714-7.8571,4.4643,0.17857" transform="translate(-320.11429,223.35939)" stroke-width="1px"/>
<path d="m926.96,476.44,3.3928,0.17857,0.17858,8.0357" transform="translate(-320.11429,223.35939)" stroke-width="1px"/>
<path d="m926.96,476.44,3.3928,0.17857,0.17858,8.0357" transform="translate(-320.11429,223.35939)" stroke-width="1px"/>
<path d="m712.86,201.26c11.071-5,10.357,7.1429,10.357,7.1429s1.7857-9.6429,8.9286-7.5" transform="translate(-320.11429,223.35939)" stroke-width="1px"/>
<path d="m496.79,236.97c12.857-4.6428,14.286,7.8572,14.286,7.8572s0.35714-11.071,8.9286-8.9286" transform="translate(-320.11429,223.35939)" stroke-width="1px"/>
<path d="m204.64,170.55c-2.8571,10.714,10,10.357,10,10.357s-11.071,5-10,12.143" transform="translate(-320.11429,223.35939)" stroke-width="1px"/>
<path d="m201.79,458.76c-0.71428,11.071,10.357,9.6429,10.357,9.6429s-9.2857,1.4286-6.4286,10.357" transform="translate(-320.11429,223.35939)" stroke-width="1px"/>
<path d="m265.71,572.69c3.2143,10-6.7857,10.357-6.7857,10.357s11.429,0.71429,10,8.5714" transform="translate(-320.11429,223.35939)" stroke-width="1px"/>
<path d="m1060.4,254.12-37.857,4.6429,9.2857,66.786,23.929-3.5714-9.2857-66.786" transform="translate(-320.11429,223.35939)" stroke-width="1px"/>
<path d="m1073.6,359.83-56.428-7.1429,6.4285-44.286,6.0715,0.35714" transform="translate(-320.11429,223.35939)" stroke-width="1px"/>
<path d="m1030,312.33-3.2143,0-4.6428,38.214,51.428,6.4286" transform="translate(-320.11429,223.35939)" stroke-width="1px"/>
<path d="m1072.5,353.76-46.786-5.7143,3.9286-31.786,1.4285,0" transform="translate(-320.11429,223.35939)" stroke-width="1px"/>
<path d="m1031.8,323.05-2.1428,21.071,41.786,5.7143" transform="translate(-320.11429,223.35939)" stroke-width="1px"/>
<path d="m1031.4,321.97,23.928-3.5714" transform="translate(-320.11429,223.35939)" stroke-width="1px"/>
<path d="m1054.6,313.05-23.929,3.2143" transform="translate(-320.11429,223.35939)" stroke-width="1px"/>
<path d="m1029.6,309.47,23.928-3.2143" transform="translate(-320.11429,223.35939)" stroke-width="1px"/>
<path d="m1052.5,298.76-23.929,3.2143" transform="translate(-320.11429,223.35939)" stroke-width="1px"/>
<path d="m1027.1,293.4,24.643-3.2143" transform="translate(-320.11429,223.35939)" stroke-width="1px"/>
<path d="m1050.7,282.33-24.286,3.2143" transform="translate(-320.11429,223.35939)" stroke-width="1px"/>
<path d="m1025.4,278.76,24.286-3.2143" transform="translate(-320.11429,223.35939)" stroke-width="1px"/>
<path d="m1048.6,268.4-24.286,3.2143" transform="translate(-320.11429,223.35939)" stroke-width="1px"/>
<path d="M1023.6,264.83,1047.5,261.62" transform="translate(-320.11429,223.35939)" stroke-width="1px"/>
<path d="m530.54,295.01,13.929,81.429,16.964-1.25l-13.93-82.86z" transform="translate(-320.11429,223.35939)" stroke-width="1px"/>
<path d="m543.75,372.51,17.143-1.9643" transform="translate(-320.11429,223.35939)" stroke-width="1px"/>
<path d="m543.21,366.44,16.607-1.9643" transform="translate(-320.11429,223.35939)" stroke-width="1px"/>
<path d="m541.25,360.01,17.857-2.5" transform="translate(-320.11429,223.35939)" stroke-width="1px"/>
<path d="M540.54,353.76,557.5,351.08" transform="translate(-320.11429,223.35939)" stroke-width="1px"/>
<path d="m539.46,346.26,16.786-2.5" transform="translate(-320.11429,223.35939)" stroke-width="1px"/>
<path d="m538.04,339.12,17.321-2.3214" transform="translate(-320.11429,223.35939)" stroke-width="1px"/>
<path d="m537.32,333.05,16.607-2.6786" transform="translate(-320.11429,223.35939)" stroke-width="1px"/>
<path d="m535.89,326.26,16.786-3.2143" transform="translate(-320.11429,223.35939)" stroke-width="1px"/>
<path d="m534.64,319.12,16.786-2.6786" transform="translate(-320.11429,223.35939)" stroke-width="1px"/>
<path d="m533.75,313.22,16.786-2.6786" transform="translate(-320.11429,223.35939)" stroke-width="1px"/>
<path d="M532.68,306.44,550,304.3" transform="translate(-320.11429,223.35939)" stroke-width="1px"/>
<path d="M531.43,300.37,548.75,298.58" transform="translate(-320.11429,223.35939)" stroke-width="1px"/>
</g>
</svg>
