<?xml version="1.0" encoding="UTF-8" standalone="no"?>
<!-- Created with Inkscape (http://www.inkscape.org/) -->
<svg xmlns:rdf="http://www.w3.org/1999/02/22-rdf-syntax-ns#" xmlns="http://www.w3.org/2000/svg" height="700.55" width="1320.2" version="1.1" xmlns:cc="http://creativecommons.org/ns#" xmlns:dc="http://purl.org/dc/elements/1.1/">
<defs></defs>
<metadata>
<rdf:RDF>
<cc:Work rdf:about="">
<dc:format>image/svg+xml</dc:format>
<dc:type rdf:resource="http://purl.org/dc/dcmitype/StillImage"/>
<dc:title/>
</cc:Work>
</rdf:RDF>
</metadata>
<g stroke-linejoin="miter" stroke="#000" stroke-linecap="butt" stroke-dasharray="none" stroke-miterlimit="4" transform="translate(320.11429,-223.35939)" fill="none">
<path d="M-285.71,263.79c5.71,128.57,5.71,132.86,5.71,132.86l12.857-1.4286,65.714,338.57-54.286,7.1429,12.857,84.286,14.286,1.4286,1.4286,12.857-24.286,5.7143,4.2857,44.286,857.14-115.72,62.857,12.857,261.43,31.429,14.286-91.429-25.714-1.4286,1.4286-55.714h-141.43l1.4286-24.286-8.5714-1.4286,10-57.143,148.57-24.286-16.685-124.27,30.971-0.0159,4.2857-102.86-304.29,8.5714-30,44.286-54.286-1.4286-7.1428-68.571-50,5.7143,2.8571,18.571-354.29,2.8572-211.43,2.8571-7.1429-84.286z" stroke-width="8.80000019"/>
<path d="m910,197.61,36.509,253.93,9.0914,1.5152" transform="translate(-320.11429,223.35939)" stroke-width="3"/>
<path d="m530.33,295.98,23.739,154.69,147.48-19.193,210.65-26.769-8.8747-56.452-63.135,7.8287-16.668-113.39" transform="translate(-320.11429,223.35939)" stroke-width="3"/>
<path d="m547.76,291.94-2.5254-20.456-18.183,2.7779-5.8084-28.537" transform="translate(-320.11429,223.35939)" stroke-width="3"/>
<path d="m910,197.61,36.509,253.93,10.163,1.1581" transform="translate(-320.11429,223.35939)" stroke-width="3"/>
<path d="m1052.9,195.55-122.86,0" transform="translate(-320.11429,223.35939)" stroke-width="3"/>
</g>
<g stroke-linejoin="miter" stroke="#000" stroke-linecap="butt" transform="translate(320.11429,-223.35939)" fill="none">
<path d="M-224.29,838.08,600,729.51l170.7,13.629,0.0127-20.772" stroke-miterlimit="4" stroke-dasharray="none" stroke-width="3"/>
<path d="m90.446,600.46c87.143-12.857,95.268-11.339,95.268-11.339l-78.571-400h-20l-1.4286-20,130,1.4286v-8.5714l44.286,2.8571v8.5714l623.57-5" transform="translate(-320.11429,223.35939)" stroke-miterlimit="4" stroke-dasharray="none" stroke-width="3"/>
<path d="m128.57,204.83,60.714,297.86,54.286-8.5714-50.714-247.86,305.71-1.4286-10-52.857-327.14,1.4286-2.8571,11.429z" transform="translate(-320.11429,223.35939)" stroke-miterlimit="4" stroke-dasharray="none" stroke-width="3"/>
<path d="m518.57,220.55,2.8571,24.286,370-3.5714-5-53.571-337.86,5.7143-1.4286,27.143z" transform="translate(-320.11429,223.35939)" stroke-miterlimit="4" stroke-dasharray="none" stroke-width="3"/>
<path d="M192.86,521.97,540,475.55l8.5714,57.857-344.29,48.571z" transform="translate(-320.11429,223.35939)" stroke-miterlimit="4" stroke-dasharray="none" stroke-width="3"/>
<path d="m558.57,471.26,5.7143,42.143,54.286-8.5714,2.8571,20,305.71-38.571-10.714-61.429c-0.49386,0.0931-357.86,46.429-357.86,46.429z" transform="translate(-320.11429,223.35939)" stroke-miterlimit="4" stroke-dasharray="none" stroke-width="3"/>
<path d="m242.86,494.12,291.43-40-9.9131-56.979-64.598,9.3313-21.138-130.66,63.497-8.4984-2.4909-22.125" transform="translate(-320.11429,223.35939)" stroke-miterlimit="4" stroke-dasharray="none" stroke-width="3"/>
<path d="m1104.3,360.55-30,4.2857-21.429-168.57,95.266-13.706,87.585-6.4477,1.4348,37.296" transform="translate(-320.11429,223.35939)" stroke-miterlimit="4" stroke-dasharray="none" stroke-width="3"/>
<path d="m1104.3,360.55-30,4.2857-21.429-168.57,95.266-13.706,87.585-6.4477,1.4348,37.296" transform="translate(-320.11429,223.35939)" stroke-miterlimit="4" stroke-dasharray="none" stroke-width="3"/>
<path d="m937.14,166.26,171.43,0-1.4285,22.857" transform="translate(-320.11429,223.35939)" stroke-miterlimit="4" stroke-dasharray="none" stroke-width="3"/>
<path d="m219.71,704.8c9.8214,3.2143,8.0357-8.0357,8.0357-8.0357s3.9286,10.357,11.964,4.8214" stroke-width="1px"/>
<path d="m496.79,236.97c12.857-4.6428,14.286,7.8572,14.286,7.8572s0.35714-11.071,8.9286-8.9286" transform="translate(-320.11429,223.35939)" stroke-width="1px"/>
<path d="m204.64,170.55c-2.8571,10.714,10,10.357,10,10.357s-11.071,5-10,12.143" transform="translate(-320.11429,223.35939)" stroke-width="1px"/>
<path d="m-106.19,721.41c-0.71428,11.071,10.357,9.6429,10.357,9.6429s-9.2857,1.4286-6.4286,10.357" stroke-width="1px"/>
<path d="m265.71,572.69c3.2143,10-6.7857,10.357-6.7857,10.357s11.429,0.71429,10,8.5714" transform="translate(-320.11429,223.35939)" stroke-width="1px"/>
<path d="m530.54,295.01,13.929,81.429,16.964-1.25l-13.93-82.86z" transform="translate(-320.11429,223.35939)" stroke-width="1px"/>
<path d="m543.75,372.51,17.143-1.9643" transform="translate(-320.11429,223.35939)" stroke-width="1px"/>
<path d="m543.21,366.44,16.607-1.9643" transform="translate(-320.11429,223.35939)" stroke-width="1px"/>
<path d="m541.25,360.01,17.857-2.5" transform="translate(-320.11429,223.35939)" stroke-width="1px"/>
<path d="M540.54,353.76,557.5,351.08" transform="translate(-320.11429,223.35939)" stroke-width="1px"/>
<path d="m539.46,346.26,16.786-2.5" transform="translate(-320.11429,223.35939)" stroke-width="1px"/>
<path d="m538.04,339.12,17.321-2.3214" transform="translate(-320.11429,223.35939)" stroke-width="1px"/>
<path d="m537.32,333.05,16.607-2.6786" transform="translate(-320.11429,223.35939)" stroke-width="1px"/>
<path d="m535.89,326.26,16.786-3.2143" transform="translate(-320.11429,223.35939)" stroke-width="1px"/>
<path d="m534.64,319.12,16.786-2.6786" transform="translate(-320.11429,223.35939)" stroke-width="1px"/>
<path d="m533.75,313.22,16.786-2.6786" transform="translate(-320.11429,223.35939)" stroke-width="1px"/>
<path d="M532.68,306.44,550,304.3" transform="translate(-320.11429,223.35939)" stroke-width="1px"/>
<path d="M531.43,300.37,548.75,298.58" transform="translate(-320.11429,223.35939)" stroke-width="1px"/>
<path d="m881.07,187.69c0.35714-8.5714-7.5-8.2143-7.5-8.2143s8.9286,1.0714,9.2857-9.6429" transform="translate(-320.11429,223.35939)" stroke-width="1px"/>
<path d="m909.14,198.25,10.859,64.65,21.466-3.5355-10.859-64.65z" transform="translate(-320.11429,223.35939)" stroke-width="1px"/>
<path d="m919.11,255.37,21.071-3.3929" transform="translate(-320.11429,223.35939)" stroke-width="1px"/>
<path d="m938.75,243.22-21.161,3.3929" transform="translate(-320.11429,223.35939)" stroke-width="1px"/>
<path d="m915.89,236.97,21.25-3.4821" transform="translate(-320.11429,223.35939)" stroke-width="1px"/>
<path d="m935.45,223.85-21.339,3.4822" transform="translate(-320.11429,223.35939)" stroke-width="1px"/>
<path d="m912.5,218.22,21.429-3.75" transform="translate(-320.11429,223.35939)" stroke-width="1px"/>
<path d="m932.86,206.88-21.696,3.4821" transform="translate(-320.11429,223.35939)" stroke-width="1px"/>
<path d="m910.27,204.03,21.518-3.3036" transform="translate(-320.11429,223.35939)" stroke-width="1px"/>
<path d="m956.43,452.69,9.2857-22.143,135.71,17.857" transform="translate(-320.11429,223.35939)" stroke-miterlimit="4" stroke-dasharray="none" stroke-width="3"/>
<path d="m1101.4,449.12-132.14,0.71429-1.4286,45,130.71,5,2.1429-51.429" transform="translate(-320.11429,223.35939)" stroke-miterlimit="4" stroke-dasharray="none" stroke-width="3"/>
<path d="m919.64,488.05c2.1428,7.8571-5.3571,8.5714-5.3571,8.5714s7.8571,0.35715,6.7857,8.9286" transform="translate(-320.11429,223.35939)" stroke-width="1px"/>
</g>
</svg>
