<?xml version="1.0" encoding="UTF-8" standalone="no"?>
<!-- Created with Inkscape (http://www.inkscape.org/) -->
<svg xmlns:rdf="http://www.w3.org/1999/02/22-rdf-syntax-ns#" xmlns="http://www.w3.org/2000/svg" height="50" width="50" version="1.1" xmlns:cc="http://creativecommons.org/ns#" xmlns:dc="http://purl.org/dc/elements/1.1/">
<metadata>
<rdf:RDF>
<cc:Work rdf:about="">
<dc:format>image/svg+xml</dc:format>
<dc:type rdf:resource="http://purl.org/dc/dcmitype/StillImage"/>
<dc:title/>
</cc:Work>
</rdf:RDF>
</metadata>
<g transform="translate(0,-1002.3622)" stroke="#000" stroke-dasharray="none" stroke-miterlimit="4">
<path d="m49.625,25.188a24.562,24.562,0,1,1,-49.125,0,24.562,24.562,0,1,1,49.125,0z" transform="translate(0,1002.3622)" stroke-width="1" fill="none"/>
<path d="m33.125,26.938a7.625,7.5625,0,1,1,-15.25,0,7.625,7.5625,0,1,1,15.25,0z" transform="matrix(1.1162791,0,0,1.1162791,-3.1453488,998.29243)" stroke-width="0.99974997000000021" fill="#F00"/>
<path d="m33.125,26.938a7.625,7.5625,0,1,1,-15.25,0,7.625,7.5625,0,1,1,15.25,0z" transform="matrix(1.1162791,0,0,1.1162791,-3.1453488,998.29243)" stroke-width="0.99974997000000021" fill="#F00"/>
</g>
</svg>
